<svg xmlns="http://www.w3.org/2000/svg" xmlns:xlink="http://www.w3.org/1999/xlink" width="500" zoomAndPan="magnify" viewBox="0 0 375 374.999991" height="500" preserveAspectRatio="xMidYMid meet" version="1.0"><defs><clipPath id="36296aef86"><path d="M 17.671875 17.671875 L 357.421875 17.671875 L 357.421875 357.421875 L 17.671875 357.421875 Z M 17.671875 17.671875 " clip-rule="nonzero"/></clipPath></defs><g clip-path="url(#36296aef86)"><path fill="#c40908" d="M 357.328125 128.058594 C 311.265625 147.136719 262.792969 158.132812 213.949219 161.046875 C 216.863281 112.207031 227.859375 63.734375 246.9375 17.671875 L 128.058594 17.671875 C 147.136719 63.734375 158.132812 112.207031 161.046875 161.046875 C 112.207031 158.132812 63.734375 147.140625 17.671875 128.058594 L 17.671875 246.9375 C 63.734375 227.859375 112.207031 216.863281 161.046875 213.949219 C 158.132812 262.792969 147.140625 311.265625 128.058594 357.328125 L 246.9375 357.328125 C 227.859375 311.265625 216.863281 262.792969 213.949219 213.949219 C 262.792969 216.863281 311.265625 227.859375 357.328125 246.9375 C 357.328125 207.3125 357.328125 167.6875 357.328125 128.058594 Z M 357.328125 128.058594 " fill-opacity="1" fill-rule="nonzero"/></g></svg>